<?xml version="1.0" encoding="UTF-8"?>
<svg id="Layer_7" xmlns="http://www.w3.org/2000/svg" version="1.1" viewBox="0 0 58.4 90">
  <!-- Generator: Adobe Illustrator 29.3.1, SVG Export Plug-In . SVG Version: 2.1.0 Build 151)  -->
  <defs>
    <style>
      .st0 {
        fill: none;
        stroke: #000;
        stroke-miterlimit: 10;
        stroke-width: .5px;
      }

      .st1 {
        fill: #4765f1;
      }

      .st2 {
        fill: #be314f;
      }
    </style>
  </defs>
  <path d="M57.9,3.5c-.9-1.8-2.9-2.8-4.9-3.3-.6-.2-1.3-.2-2.1-.2h-7.3c-3.9-.2-7.4,2.2-8.6,6.1-3.2,12.6-6.4,25.3-9.7,37.9-2.2,8.6-4.6,17.5-7.2,27.3-.7-.2-1.4-.2-2.2-.2h-7c-3.7-.2-7.3,2.6-8.5,6.6-1.4,4.7.9,9.6,5.1,10.9.8.3,1.7.3,2.5.3h7c1.3,0,2.5-.2,3.7-.8,1,.9,2.3,1.4,3.6,1.7.6.2,1.3.2,1.9.2h7.3c5.1,0,8.1-3.2,9.3-7.8.7-2.9,1.4-5.8,2.2-8.7,4.4-17,8.7-34.3,12.3-51.6s1.7-8.5,2.6-12.7c.3-1.5.6-3,.4-4.4,0-.5-.2-.9-.4-1.3Z"/>
  <path class="st1" d="M48.6,9.3c-6.1,24.7-12.3,49.3-18.8,74-.2.6-.4,1.1-.8,1.6-1.1,1.6-3,2.7-5.2,2.7h0c-.5,0-.9,0-1.4-.2-.1,0-.3,0-.4,0,0,0,0,0-.1,0-2.3-.7-3.9-2.4-4.1-4.5,0-.6,0-1.3.1-2,.3-1.1.6-2.2.9-3.3,2.9-10.9,5.8-21.9,8.6-32.8,3.3-12.6,6.5-25.3,9.7-37.9.7-2.6,3.1-4.1,5.6-4.2.2,0,.5,0,.7,0,.3,0,.6,0,.8.1,1.5.3,2.8,1.2,3.6,2.3.9,1.2,1.2,2.7.8,4.3Z"/>
  <ellipse class="st2" cx="7.5" cy="80.2" rx="6.5" ry="5.5" transform="translate(-71.4 64.4) rotate(-73.3)"/>
  <line class="st0" x1="90.2" y1="134.5" x2="90.2" y2="134.5"/>
  <path class="st0" d="M58.2,2.3"/>
</svg>