<?xml version="1.0" encoding="utf-8"?>
<!-- Uploaded to: SVG Repo, www.svgrepo.com, Generator: SVG Repo Mixer Tools -->
<svg fill="#000000" width="800px" height="800px" viewBox="0 0 32 32" version="1.1" xmlns="http://www.w3.org/2000/svg">
<title>game</title>
<path d="M4.469 8.156v-2.25h2.25v2.25h-2.25zM15.688 5.906h2.219v2.25h-2.219v-2.25zM20.156 12.625v-4.469h2.25v8.969h-2.25v2.219h-2.25v2.25h2.25v2.25h2.25v2.219h-4.5v-2.219h-2.219v-2.25h-8.969v2.25h-2.25v2.219h-4.469v-2.219h2.25v-2.25h2.219v-2.25h-2.219v-2.219h-2.25v-8.969h2.25v4.469h2.219v-2.219h2.25v-2.25h2.25v2.25h4.469v-2.25h2.25v2.25h2.219v2.219h2.25zM8.969 14.875v-2.25h-2.25v2.25h2.25zM15.688 14.875v-2.25h-2.25v2.25h2.25z"></path>
</svg>