<?xml version="1.0" encoding="UTF-8"?>
<svg id="Layer_2" xmlns="http://www.w3.org/2000/svg" viewBox="0 0 256.15 91.58">
  <defs>
    <style>
      .cls-1 {
        fill: #4765f1;
      }

      .cls-2 {
        fill: #fff;
      }

      .cls-3 {
        fill: #be314f;
      }
    </style>
  </defs>
  <g id="Layer_7">
    <g>
      <g>
        <path class="cls-2" d="M222.57,2.53h-.14c-.41-.04-.81-.04-1.21-.02-.24,0-.49-.01-.73,0-.24,0-.49-.01-.73,0-.24,0-.49-.01-.73,0-.24,0-.49-.01-.73,0-.24,0-.49-.01-.73,0-.24,0-.49-.01-.73,0-.24,0-.49-.01-.73,0-.24,0-.49-.01-.73,0-.24,0-.49-.01-.73,0-.24,0-.49-.01-.73,0-9.76-.39-18.27,18.13-22.54,37.96-5.4-15.12-16.56-37.74-32.3-37.41-.24,0-.48,0-.73,0-.24,0-.48,0-.73,0-.24,0-.48,0-.73,0-.24,0-.48,0-.73,0-.24,0-.48,0-.73,0-.24,0-.48,0-.73,0-.24,0-.48,0-.73,0-.24,0-.48,0-.73,0-.24,0-.48,0-.73,0-.24,0-.49,0-.73,0-1.22-.03-2.46.07-3.73.32l-.12.04c-6.29,2.96-6.74,9.58-8.05,18.99-.73,6.85-.97,15.08-.85,23.14-4.12-5.49-10.2-8.96-16.99-8.96-.12,0-.24,0-.36.01-.12,0-.24-.01-.36-.01s-.24,0-.36.01c-.12,0-.24-.01-.36-.01s-.24,0-.36.01c-.12,0-.24-.01-.36-.01s-.24,0-.36.01c-.12,0-.24-.01-.36-.01s-.24,0-.36.01c-.12,0-.24-.01-.36-.01s-.24,0-.36.01c-.12,0-.24-.01-.36-.01s-.24,0-.36.01c-.12,0-.24-.01-.36-.01s-.24,0-.36.01c-.12,0-.24-.01-.36-.01s-.24,0-.36.01c-.12,0-.24-.01-.36-.01s-.24,0-.36.01c-.12,0-.24-.01-.36-.01s-.24,0-.36.01c-.12,0-.24-.01-.36-.01-9.41,0-17.46,6.67-20.82,16.15-2.39-4.78-5.43-9.28-8.42-13.66,1.22.19,2.49.12,3.71-.2.18,0,.35,0,.53,0,.24,0,.49.01.73,0,.24,0,.49.01.73,0,.24,0,.49.01.73,0,.23,0,.45.01.68,0,4.1,1.13,9-1.07,10.95-4.98,4.1-8.23-5.22-18.99-10.71-24.59-3.66-3.64-8.37-5.4-13.1-5.57-.6-.04-1.2-.05-1.79-.04-.24,0-.48,0-.73,0-.24,0-.48,0-.73,0-.24,0-.48,0-.73,0-.24,0-.48,0-.73,0-.24,0-.48,0-.73,0-.24,0-.48,0-.73,0-.24,0-.48,0-.73,0-.24,0-.48,0-.73,0-.39,0-.77,0-1.16.01-4.72,0-9.41,1.6-13.07,4.49-.38-2.13-2.1-3.95-4.49-4.47-.54-.12-1.07-.14-1.61-.11-.24-.02-.49-.01-.73,0-.24-.02-.49-.01-.73,0-.24-.02-.49-.01-.73,0-.24-.02-.49-.01-.73,0-.24-.02-.49-.01-.73,0-.24-.02-.49-.01-.73,0-.24-.02-.49-.01-.73,0-.24-.02-.49-.01-.73,0-.24-.02-.49-.01-.73,0-.24-.02-.49-.01-.73,0-2.7-.19-5.32,1.42-6.18,4.19-3.16,12.64-6.39,25.28-9.67,37.92-2.63,10.13-5.3,20.25-8,30.38-.57-.58-1.26-1.02-2.06-1.26-.57-.17-1.15-.23-1.73-.18-.24-.02-.49-.02-.73,0-.24-.02-.49-.02-.73,0-.24-.02-.49-.02-.73,0-.24-.02-.49-.02-.73,0-.24-.02-.49-.02-.73,0-.24-.02-.49-.02-.73,0-.24-.02-.49-.02-.73,0-.24-.02-.49-.02-.73,0-.24-.02-.49-.02-.73,0-.24-.02-.49-.02-.73,0-2.61-.2-5.22,1.78-6.13,4.83-1.03,3.44.49,6.93,3.4,7.81.57.17,1.15.23,1.73.18.24.02.49.02.73,0,.24.02.49.02.73,0,.24.02.49.02.73,0,.24.02.49.02.73,0,.24.02.49.02.73,0,.24.02.49.02.73,0,.24.02.49.02.73,0,.24.02.49.02.73,0,.24.02.49.02.73,0,.24.02.49.02.73,0,1.43.11,2.87-.44,4.02-1.47.82,1.18,2.13,2.07,3.76,2.42.47.1.94.15,1.4.15.1,0,.2-.02.29-.02.14,0,.29.02.43.02.1,0,.2-.02.29-.02.14,0,.29.02.43.02.1,0,.2-.02.29-.02.14,0,.29.02.43.02.1,0,.2-.02.29-.02.14,0,.29.02.43.02.1,0,.2-.02.29-.02.14,0,.29.02.43.02.1,0,.2-.02.29-.02.14,0,.29.02.43.02.1,0,.2-.02.29-.02.14,0,.29.02.43.02.1,0,.2-.02.29-.02.14,0,.29.02.43.02.1,0,.2-.02.29-.02.14,0,.29.02.43.02.1,0,.2-.02.29-.02.14,0,.29.02.43.02.1,0,.2-.02.29-.02.14,0,.29.02.43.02,2.78,0,5.3-1.7,5.96-4.23,4.54-17.25,8.96-34.5,13.28-51.74,2.06,6.79,6.09,13.11,10.08,19.04-.1,0-.2,0-.3,0-.24-.01-.49-.01-.73,0-.24-.01-.49-.01-.73,0-.24-.01-.49-.01-.73,0-.24-.01-.49-.01-.73,0-.24-.01-.49-.01-.73,0-.24-.01-.49-.01-.73,0-.24-.01-.49-.01-.73,0-.24-.01-.49-.01-.73,0-.44-.02-.88,0-1.31.06-4.8.1-8.94,5.02-9.49,10.44-1.54,9.39,5.39,17.52,12.48,22.66,4.37,3.35,9.43,4.6,14.24,4.17.03,0,.06,0,.08,0,.24,0,.49,0,.73,0,.24,0,.49,0,.73,0,.24,0,.49,0,.73,0,.24,0,.49,0,.73,0,.24,0,.49,0,.73,0,.22,0,.43,0,.65,0,8.22.73,16.4-3.62,20-11.1,4.09,6.49,10.71,10.71,18.2,10.71.12,0,.24,0,.36-.01.12,0,.24.01.36.01s.24,0,.36-.01c.12,0,.24.01.36.01s.24,0,.36-.01c.12,0,.24.01.36.01s.24,0,.36-.01c.12,0,.24.01.36.01s.24,0,.36-.01c.12,0,.24.01.36.01s.24,0,.36-.01c.12,0,.24.01.36.01s.24,0,.36-.01c.12,0,.24.01.36.01s.24,0,.36-.01c.12,0,.24.01.36.01s.24,0,.36-.01c.12,0,.24.01.36.01s.24,0,.36-.01c.12,0,.24.01.36.01s.24,0,.36-.01c.12,0,.24.01.36.01,8.35,0,15.62-5.25,19.51-13.05,1.39,7.39,2.57,11.7,7.63,12.59.39.02.8.02,1.2,0,.24,0,.48,0,.73,0,.24,0,.48,0,.73,0,.24,0,.48,0,.73,0,.24,0,.48,0,.73,0,.24,0,.48,0,.73,0,.24,0,.48,0,.73,0,.24,0,.48,0,.73,0,.24,0,.48,0,.73,0,.24,0,.48,0,.73,0,.24,0,.48,0,.73,0,9.47.12,23.48-8.2,30.97-17.01.74,9.67,3.61,16.31,9.27,16.08.24.02.48.01.73,0,.24.02.48.01.73,0,.24.02.48.01.73,0,.24.02.48.01.73,0,.24.02.48.01.73,0,.24.02.48.01.73,0,.24.02.48.01.73,0,.24.02.48.01.73,0,.24.02.48.01.73,0,.24.02.48.01.73,0,.34.02.68.02,1.04,0,8.47-2.19,11.7-14.34,14.07-21.73.12-.45.24-.87.36-1.28.2.41.41.84.63,1.3,3.59,7.07,7.72,17.38,14.89,21.37.99.41,1.9.56,2.73.49.25.02.49.02.73,0,.25.02.49.02.73,0,.25.02.49.02.73,0,.25.02.49.02.73,0,.25.02.49.02.73,0,.25.02.49.02.73,0,.25.02.49.02.73,0,.25.02.49.02.73,0,.25.02.49.02.73,0,.25.02.49.02.73,0,16.94,1.19,3.44-85.33-23.64-84.83Z"/>
        <path class="cls-2" d="M69.68,91.58c-4.98,0-9.87-1.66-13.92-4.77-5.66-4.1-9.69-8.84-11.85-13.76-1.04,4.01-2.09,8-3.13,11.95-.94,3.59-4.39,6.1-8.38,6.1-.14,0-.28,0-.41-.02-.21.02-.48.02-.73,0-.21.02-.48.02-.73,0-.21.02-.48.02-.73,0-.21.02-.48.02-.73,0-.21.02-.48.02-.73,0-.21.02-.48.02-.73,0-.21.02-.48.02-.73,0-.21.02-.48.02-.73,0-.21.02-.48.02-.73,0-.21.02-.48.02-.73,0-.09,0-.2.02-.31.02-.64,0-1.28-.07-1.91-.2-1.35-.28-2.57-.85-3.6-1.65-1.16.56-2.41.82-3.66.76-.24.01-.48.01-.73,0-.24.01-.48.01-.73,0-.24.01-.48.01-.73,0-.24.01-.48.01-.73,0-.24.01-.48.01-.73,0-.24.01-.48.01-.73,0-.24.01-.48.01-.73,0-.24.01-.48.01-.73,0-.24.01-.48.01-.73,0-.24.01-.48.01-.73,0-.84.04-1.66-.05-2.45-.29-2.09-.63-3.82-2.21-4.75-4.34-.88-2.02-.99-4.35-.32-6.58,1.21-4.04,4.78-6.79,8.52-6.61.24-.01.48-.01.73,0,.24-.01.48-.01.73,0,.24-.01.48-.01.73,0,.24-.01.48-.01.73,0,.24-.01.48-.01.73,0,.24-.01.48-.01.73,0,.24-.01.48-.01.73,0,.24-.01.48-.01.73,0,.24-.01.48-.01.73,0,.24-.01.48-.01.73,0,.75-.04,1.48.04,2.19.22,2.61-9.79,4.96-18.74,7.18-27.28,3.27-12.6,6.52-25.35,9.66-37.9l.04-.13c1.16-3.73,4.68-6.16,8.59-5.96.24,0,.48-.01.72,0,.24-.01.48-.01.73,0,.24-.01.48-.01.73,0,.24-.01.48-.01.73,0,.24-.01.48-.01.73,0,.24-.01.48-.01.73,0,.24-.01.48-.01.73,0,.24-.01.48-.01.73,0,.24-.01.48-.01.73,0,.24-.01.49-.01.73,0,.78-.03,1.47.03,2.13.17,2.06.45,3.82,1.6,4.99,3.18,3.59-2.11,7.76-3.26,12.03-3.26.34-.01.77-.02,1.21-.01.17,0,.43,0,.68,0,.24,0,.48,0,.73,0,.24,0,.48,0,.73,0,.24,0,.48,0,.73,0,.24,0,.49,0,.73,0,.24,0,.48,0,.73,0,.24,0,.48,0,.73,0,.26,0,.52,0,.78,0,.61-.02,1.27,0,1.91.04,5.58.2,10.83,2.43,14.7,6.3,10.95,11.17,14.7,20.41,11.18,27.48-.22.45-.47.88-.75,1.29,3.01-1.44,6.3-2.22,9.71-2.22.1,0,.21,0,.31,0h.11c.2,0,.41,0,.61,0h.11c.2,0,.41,0,.61,0h.11c.21,0,.41,0,.61,0h.11c.2,0,.41,0,.61,0h.11c.2,0,.41,0,.61,0h.11c.2,0,.41,0,.61,0h.11c.2,0,.41,0,.61,0h.11c.2,0,.41,0,.61,0h.11c.2,0,.41,0,.61,0h.11c.2,0,.41,0,.61,0h.11c.1,0,.2,0,.31,0,5.24,0,10.28,1.87,14.47,5.25.06-6.34.36-12.2.89-17.2l.28-2.02c1.18-8.73,2.12-15.63,9.2-18.96l.68-.23c1.37-.28,2.79-.4,4.23-.38.25,0,.49,0,.73,0,.24,0,.49,0,.73,0,.24,0,.49,0,.73,0,.24,0,.49,0,.73,0,.24,0,.49,0,.73,0,.24,0,.49,0,.73,0,.24,0,.49,0,.73,0,.24,0,.49,0,.73,0,.24,0,.49,0,.73,0,.24,0,.49,0,.73,0,.12,0,.23,0,.35,0,14.93,0,25.37,17.4,31.4,31.63C195.5,15.45,203.37,0,213.64,0c.1,0,.2,0,.3,0,.24-.01.49,0,.73,0,.24,0,.48,0,.73,0,.24,0,.48,0,.73,0,.24,0,.48,0,.73,0,.24,0,.49,0,.73,0,.24,0,.48,0,.73,0,.24,0,.49,0,.73,0,.24,0,.48,0,.73,0,.24,0,.48,0,.73,0,.24-.01.48,0,.72,0,.49-.02.92-.02,1.34.02,7.47-.11,14.59,5.36,20.51,15.87,11.69,20.77,17.02,58.78,9.85,70.12-2.09,3.3-4.75,3.92-6.68,3.84-.24.01-.48.01-.73,0-.23.01-.48.01-.73,0-.24.01-.48.01-.73,0-.23.01-.47.01-.73,0-.24.01-.48.01-.73,0-.23.01-.47.01-.73,0-.24.01-.48.01-.73,0-.23.01-.47.01-.73,0-.24.01-.48.01-.73,0-.23.01-.47.01-.72,0-1.19.07-2.43-.16-3.69-.68l-.26-.13c-6.46-3.59-10.53-11.45-13.78-18.11-2.46,7.43-6.27,16.6-14.33,18.69l-.42.07c-.41.03-.83.04-1.28.02-.24,0-.48,0-.72,0-.25,0-.49.01-.73,0-.25,0-.49.01-.73,0-.25,0-.49.01-.73,0-.25,0-.49.01-.73,0-.24,0-.49.01-.73,0-.25,0-.49.01-.73,0-.25,0-.49.01-.73,0-.25,0-.49.01-.73,0-.25,0-.49.01-.73,0-3.45.13-8.95-1.67-11.07-13.09-7.92,7.37-19.92,14.12-29.13,14.02-.23,0-.46,0-.69,0-.24,0-.48,0-.73,0-.23,0-.48,0-.73,0-.24,0-.48,0-.73,0-.24,0-.48,0-.73,0-.24,0-.48,0-.73,0-.24,0-.48,0-.73,0-.24,0-.48,0-.73,0-.23,0-.48,0-.73,0-.24,0-.48,0-.73,0-.45.01-.92.01-1.37,0l-.33-.04c-4.96-.87-7.09-4.4-8.34-8.67-4.68,5.76-11.32,9.16-18.36,9.16-.1,0-.21,0-.31,0h-.11c-.2,0-.41,0-.61,0h-.11c-.2,0-.41,0-.61,0h-.11c-.2,0-.41,0-.61,0h-.11c-.2,0-.41,0-.61,0h-.11c-.2,0-.41,0-.61,0h-.11c-.2,0-.41,0-.61,0h-.11c-.2,0-.41,0-.61,0h-.11c-.2,0-.41,0-.61,0h-.11c-.2,0-.41,0-.61,0h-.11c-.2,0-.41,0-.61,0h-.11c-.1,0-.2,0-.31,0-6.82,0-13.32-3.2-17.99-8.71-4.56,6.21-12.28,9.78-20.3,9.11-.17,0-.34,0-.51,0-.25,0-.5,0-.77,0-.24,0-.48,0-.73,0-.24,0-.48,0-.73,0-.24,0-.48,0-.73,0-.23,0-.45,0-.68,0-.66.06-1.32.09-1.98.09ZM55.24,54.16c-.2,0-.4.01-.59.04l-.3.02c-3.38.07-6.62,3.82-7.06,8.19l-.02.15c-1.58,9.6,7.51,17.34,11.48,20.23,3.7,2.84,8.03,4.11,12.55,3.7h.35c.21-.01.42,0,.63-.01h.1c.21,0,.42,0,.63,0h.1c.21,0,.42,0,.63,0h.1c.21,0,.42,0,.63,0h.1c.21,0,.42,0,.63,0h.05s.13,0,.13,0c.17,0,.33,0,.5,0h.13s.13,0,.13,0c7.37.65,14.42-3.24,17.53-9.7l1.96-4.07,2.41,3.82c3.77,5.98,9.78,9.54,16.08,9.54h.32s.4,0,.4,0h.32s.4,0,.4,0h.32s.4,0,.4,0h.32s.4,0,.4,0h.32s.4,0,.4,0h.32s.4,0,.4,0h.32s.4,0,.4,0h.32s.4,0,.4,0h.32s.4,0,.4,0h.32s.4,0,.4,0h.32s.4,0,.4,0c7.07,0,13.69-4.47,17.27-11.67l3.32-6.67,1.37,7.32c1.47,7.84,2.56,9.99,5.45,10.56.28,0,.56,0,.85,0h.06s.06,0,.06,0c.27,0,.44,0,.62,0h.11c.27,0,.44,0,.62,0h.11c.27,0,.44,0,.62,0h.11c.27,0,.44,0,.62,0h.11c.27,0,.44,0,.62,0h.11c.27,0,.44,0,.62,0h.11c.27,0,.44,0,.62,0h.11c.27,0,.44,0,.62,0h.11c.27,0,.44,0,.62,0h.11c.27,0,.44,0,.62,0h.06s.06,0,.06,0c.06,0,.11,0,.17,0,8.23,0,21.39-7.34,28.86-16.13l3.94-4.62.46,6.06c.32,4.16,1.59,13.77,6.52,13.77.05,0,.1,0,.16,0h.13s.13,0,.13,0c.15,0,.3,0,.45,0h.14s.14,0,.14,0c.15,0,.3,0,.45,0h.14s.14,0,.14,0c.15,0,.3,0,.45,0h.14s.14,0,.14,0c.15,0,.3,0,.45,0h.14s.14,0,.14,0c.15,0,.3,0,.45,0h.14s.14,0,.14,0c.15,0,.3,0,.45,0h.14s.14,0,.14,0c.15,0,.3,0,.45,0h.14s.14,0,.14,0c.15,0,.3,0,.45,0h.14s.14,0,.14,0c.15,0,.3,0,.45,0h.14s.14,0,.14,0c.15,0,.3,0,.45,0h.14s.14,0,.14,0c.16.01.32.01.46,0,6.38-1.85,9.5-11.77,11.58-18.37l.5-1.59c.12-.45.24-.87.36-1.27l1.79-6.18,2.85,5.77c.21.42.42.86.65,1.33.5.98,1.04,2.09,1.6,3.23,3.01,6.19,6.75,13.87,12.12,16.95.53.21,1.02.29,1.43.25l.19-.02h.19c.12.02.23.03.34.02l.19-.02h.19c.12.02.23.03.34.02l.19-.02h.19c.12.02.23.03.34.02l.19-.02h.19c.12.02.23.03.34.02l.19-.02h.19c.12.02.23.03.34.02l.19-.02h.19c.12.02.23.03.34.02l.19-.02h.19c.12.02.23.03.34.02l.19-.02h.19c.12.02.23.03.34.02l.19-.02h.19c.12.02.23.03.34.02l.19-.02h.19c.12.02.23.03.34.02l.19-.02h.19c.38.04,1.28.1,2.29-1.5,5.69-8.99,1.41-44.77-9.98-65-3.46-6.15-9.06-13.5-16.08-13.32h-.44c-.23-.04-.49-.04-.82-.02h-.12s-.12,0-.12,0c-.17,0-.33,0-.5,0h-.12s-.12,0-.12,0c-.17,0-.33,0-.5,0h-.12s-.12,0-.12,0c-.17,0-.33,0-.5,0h-.12s-.12,0-.12,0c-.17,0-.33,0-.5,0h-.12s-.12,0-.12,0c-.17,0-.33,0-.5,0h-.12s-.12,0-.12,0c-.17,0-.33,0-.5,0h-.12s-.12,0-.12,0c-.17,0-.33,0-.5,0h-.12s-.12,0-.12,0c-.17,0-.33,0-.5,0h-.12s-.12,0-.12,0c-.17,0-.33,0-.5,0h-.12s-.12,0-.12,0c-.17,0-.33,0-.5,0h-.12s-.12,0-.12,0c-.06,0-.13,0-.2,0-7,0-15.29,15.05-19.8,35.99l-1.85,8.58-2.95-8.26c-3.85-10.79-14.42-35.75-29.6-35.75-.1,0-.19,0-.29,0h-.06s-.06,0-.06,0c-.21,0-.41,0-.62,0h-.06s-.06,0-.06,0c-.2,0-.41,0-.62,0h-.06s-.06,0-.06,0c-.21,0-.41,0-.62,0h-.06s-.06,0-.06,0c-.21,0-.41,0-.62,0h-.06s-.06,0-.06,0c-.2,0-.41,0-.62,0h-.06s-.06,0-.06,0c-.2,0-.41,0-.62,0h-.06s-.06,0-.06,0c-.2,0-.41,0-.62,0h-.06s-.06,0-.06,0c-.2,0-.41,0-.62,0h-.06s-.06,0-.06,0c-.21,0-.41,0-.62,0h-.06s-.06,0-.06,0c-.21,0-.41,0-.62,0h-.05s-.05,0-.05,0c-1.02-.03-1.98.05-2.94.23-4.23,2.12-5,6.41-6.16,15.01l-.27,1.96c-.67,6.33-.96,14.23-.83,22.76l.12,7.69-4.62-6.14c-3.8-5.06-9.27-7.97-14.99-7.97h-.32s-.4,0-.4,0h-.32s-.4,0-.4,0h-.32s-.4,0-.4,0h-.32s-.4,0-.4,0h-.32s-.4,0-.4,0h-.32s-.4,0-.4,0h-.32s-.4,0-.4,0h-.32s-.4,0-.4,0h-.32s-.4,0-.4,0h-.32s-.4,0-.4,0h-.32s-.4,0-.4,0c-8.1,0-15.35,5.68-18.47,14.48l-1.96,5.54-2.63-5.25c-2.25-4.5-5.07-8.71-8.25-13.36l-3.26-4.77,5.71.89c.87.14,1.81.08,2.7-.15l.32-.08h.33c.13,0,.26,0,.39,0h.09s.09,0,.09,0c.18,0,.36,0,.55,0h.09s.09,0,.09,0c.18,0,.36,0,.55,0h.09s.09,0,.09,0c.18,0,.36,0,.55,0h.09s.09,0,.09,0c.2,0,.36,0,.51,0l.39-.02.37.1c2.96.82,6.65-.87,8.05-3.68,2.43-4.89-1.11-12.4-10.26-21.73-3.8-3.78-8.3-4.71-11.41-4.82-.57-.04-1.09-.05-1.66-.04-.31,0-.52,0-.73,0h-.05s-.05,0-.05,0c-.21,0-.42,0-.63,0h-.05s-.05,0-.05,0c-.21,0-.42,0-.63,0h-.05s-.05,0-.05,0c-.21,0-.42,0-.63,0h-.05s-.05,0-.05,0c-.21,0-.42,0-.63,0h-.05s-.05,0-.05,0c-.21,0-.42,0-.63,0h-.05s-.05,0-.05,0c-.21,0-.42,0-.63,0h-.05s-.05,0-.05,0c-.21,0-.42,0-.63,0-.43,0-.77,0-1.11.01-4.31,0-8.4,1.41-11.62,3.95l-3.27,2.59-.74-4.11c-.22-1.21-1.23-2.18-2.57-2.47-.26-.06-.56-.08-.94-.05h-.15s-.15,0-.15,0c-.14-.01-.28,0-.42,0h-.16s-.16,0-.16,0c-.14,0-.28,0-.42,0h-.16s-.16,0-.16,0c-.14-.01-.28,0-.42,0h-.16s-.16,0-.16,0c-.14,0-.28,0-.42,0h-.16s-.16,0-.16,0c-.14-.01-.28,0-.42,0h-.16s-.16,0-.16,0c-.14-.01-.28,0-.42,0h-.16s-.16,0-.16,0c-.14,0-.28,0-.42,0h-.16s-.15,0-.15,0c-.14-.01-.28,0-.42,0h-.16s-.16,0-.16,0c-.14,0-.28,0-.42,0h-.16s-.15,0-.15,0c-.14-.01-.28,0-.42,0h-.15s-.15,0-.15,0c-1.62-.11-3.1.86-3.6,2.38-3.14,12.54-6.39,25.28-9.65,37.87-2.45,9.44-5.07,19.38-8.01,30.4l-1.13,4.25-3.07-3.15c-.29-.3-.62-.5-.98-.61-.26-.08-.53-.11-.82-.08l-.19.02h-.19c-.11-.02-.22-.03-.34-.02l-.2.02h-.2c-.11-.02-.22-.03-.34-.02l-.2.02h-.2c-.11-.02-.22-.03-.34-.02l-.2.02h-.2c-.11-.02-.22-.03-.34-.02l-.2.02h-.2c-.11-.02-.22-.03-.33-.02l-.2.02h-.2c-.11-.02-.22-.03-.34-.02l-.2.02h-.2c-.11-.02-.23-.03-.34-.02l-.2.02h-.2c-.11-.02-.22-.03-.34-.02l-.2.02h-.2c-.11-.02-.22-.03-.34-.02l-.2.02h-.2c-.11-.02-.22-.03-.34-.02l-.19.02h-.19c-1.48-.14-3,1.19-3.55,3.04-.32,1.08-.28,2.23.12,3.15.2.46.67,1.26,1.6,1.54.26.08.53.11.82.08l.19-.02h.19c.11.02.22.03.34.02l.2-.02h.2c.11.02.22.03.34.02l.2-.02h.2c.11.02.22.03.34.02l.2-.02h.2c.11.02.22.03.34.02l.2-.02h.2c.11.02.22.03.34.02l.2-.02h.2c.11.02.22.03.34.02l.2-.02h.2c.11.02.22.03.34.02l.2-.02h.2c.11.02.22.03.34.02l.2-.02h.2c.11.02.22.03.34.02l.2-.02h.2c.11.02.22.03.34.02l.19-.02h.19c.73.08,1.5-.23,2.17-.83l2.1-1.87,1.61,2.31c.49.7,1.28,1.2,2.22,1.4.27.06.54.09.82.09.1,0,.18-.02.27-.02h.13s.13,0,.13,0c.1,0,.16.01.21.01.09,0,.17-.02.25-.02h.13s.13,0,.13,0c.1,0,.16.01.21.01.09,0,.17-.02.25-.02h.13s.13,0,.13,0c.1,0,.16.01.21.01.09,0,.17-.02.25-.02h.13s.13,0,.13,0c.1,0,.16.01.21.01.09,0,.17-.02.25-.02h.13s.13,0,.13,0c.1,0,.16.01.21.01.09,0,.17-.02.25-.02h.13s.13,0,.13,0c.1,0,.16.01.21.01.09,0,.17-.02.25-.02h.13s.13,0,.13,0c.1,0,.16.01.21.01.09,0,.17-.02.25-.02h.13s.13,0,.13,0c.1,0,.16.01.21.01.09,0,.17-.02.25-.02h.13s.13,0,.13,0c.1,0,.16.01.21.01.09,0,.17-.02.25-.02h.13s.13,0,.13,0c.1,0,.16.01.21.01.09,0,.17-.02.25-.02h.13s.13,0,.13,0c.15.01.21.02.26.02,1.69,0,3.18-1,3.54-2.37,4.42-16.81,8.89-34.21,13.27-51.72l2.2-8.76,2.62,8.65c1.97,6.49,5.9,12.64,9.76,18.37l2.59,3.85-4.88.05h-.22c-.15-.02-.31-.02-.46,0h-.14s-.14,0-.14,0c-.15,0-.3,0-.46,0h-.14s-.14,0-.14,0c-.15-.01-.31,0-.46,0h-.14s-.14,0-.14,0c-.15,0-.3,0-.46,0h-.14s-.14,0-.14,0c-.15-.01-.31,0-.46,0h-.14s-.14,0-.14,0c-.15,0-.3,0-.46,0h-.14s-.14,0-.14,0c-.15,0-.3,0-.46,0h-.14s-.14,0-.14,0c-.15-.01-.31,0-.46,0h-.13s-.13,0-.13,0c-.08,0-.16,0-.24,0ZM52.2,40.69c-.82,3.26-1.64,6.5-2.47,9.75,1.37-.72,2.85-1.14,4.36-1.2.49-.06,1-.08,1.5-.06.24,0,.48,0,.73,0,.24-.01.48-.01.73,0,0,0,.02,0,.03,0-1.75-2.73-3.44-5.55-4.88-8.48ZM89.42,41.4c1.29,1.94,2.51,3.84,3.64,5.76,1.25-2.23,2.76-4.22,4.46-5.94-1.91.55-3.95.64-5.89.18-.12,0-.24,0-.36,0-.24,0-.48,0-.73,0-.24,0-.49,0-.73,0-.13,0-.27,0-.4,0Z"/>
      </g>
      <path d="M70.44,24.61c-.45.91-.15,2.22.11,3.22.98,3.25,2.83,6.08,4.66,8.88,6.28,9.21,13.39,18.94,14.48,30.43,1.82,18.09-18.71,28.21-32.41,17.69-7.09-5.14-14.03-13.27-12.48-22.66.75-7.44,8.27-13.94,14.97-8.34,2.88,2.63,3.7,6.56,5.81,10.46.74,1.81,4.29,6.91,4.08,1.93-.53-3.75-3.43-7.83-5.61-11.1-6.82-10.12-15.01-21.42-13.67-34.26,1.45-16.26,22.58-22.72,33.8-11.54,5.49,5.6,14.81,16.37,10.71,24.59-2.48,4.98-9.76,7.21-14.06,3.28-2.3-1.1-7.48-14.86-10.33-12.67l-.05.08Z"/>
      <path d="M114.09,36.6c-12.43,0-22.5,11.64-22.5,26s10.07,26,22.5,26,22.5-11.64,22.5-26-10.07-26-22.5-26ZM118.09,70.1c-4.64-3.46-7.31-9.23-7-15,4.6,3.44,7.34,9.26,7,15Z"/>
      <path d="M184.38,43.3c-5.24-15.8-17.9-43.66-36.28-39.91l-.12.04c-6.29,2.96-6.74,9.58-8.05,18.99-1.09,10.28-1.11,23.7-.39,34.95.35,5.49.85,10.78,1.67,16.08,1.59,8.68,2.5,13.72,8.02,14.69,11.79.51,31.19-12.74,35.67-23.56,3.15-6.87,1.71-14.34-.52-21.28ZM158.96,48.02c-1.57-4.51-2.79-9.06-2.87-13.92,3.03,3.81,4.97,8.1,6.63,12.58,1.57,4.51,2.8,9.05,2.87,13.92-3.03-3.8-4.98-8.09-6.63-12.58Z"/>
      <path d="M214.57,2.53h-.14c-21.31-2.22-36.95,86.44-16.17,84.68,8.47-2.19,11.7-14.34,14.07-21.73,2.79-10.34,4.63-9.1,8.99.02,3.59,7.07,7.72,17.38,14.89,21.37,19.92,8.2,6.44-84.86-21.64-84.34ZM218.59,38.6c-4.16-2.67-6.32-7.63-5.5-12.5,4.14,2.69,6.34,7.63,5.5,12.5Z"/>
      <path class="cls-1" d="M24.41,88.61c-.46,0-.93-.05-1.4-.15-3.29-.69-5.3-3.64-4.51-6.59,3.23-12.04,6.4-24.07,9.53-36.11,3.28-12.64,6.5-25.28,9.67-37.92.95-3.07,4.07-4.74,7.06-4.09,3.16.69,5.15,3.64,4.43,6.59-6.05,24.68-12.32,49.35-18.81,74.03-.66,2.53-3.18,4.23-5.96,4.23Z"/>
      <ellipse class="cls-3" cx="8.09" cy="81.1" rx="6.5" ry="5.5" transform="translate(-71.92 65.55) rotate(-73.3)"/>
    </g>
  </g>
</svg>